<svg width="587" height="152" viewBox="0 0 587 152" fill="none" xmlns="http://www.w3.org/2000/svg">
    <mask id="path-1-outside-1_601_11" maskUnits="userSpaceOnUse" x="3" y="60" width="458" height="50" fill="black">
    <rect fill="white" x="3" y="60" width="458" height="50"/>
    <path d="M20.221 93.259L16.566 97H9.084V108.137H4.827V74.683H9.084V77.908L12.18 74.683H16.566L20.221 78.424V93.259ZM15.964 93.259V78.424H9.084V96.484L12.18 93.259H15.964ZM41.1378 97H36.8808V93.818L33.6988 97H29.4418L25.7438 93.259V85.863L29.4418 82.122H36.4508L32.9248 85.82H29.9578V93.259H36.8808V78.424H25.1848L28.3668 74.683H37.4398L41.1378 78.424V97ZM63.2398 97H59.0258V78.424H52.1458V97H47.8888V74.683H52.1458V77.908L55.2848 74.683H59.5418L63.2398 78.424V97ZM84.9296 97H80.7156V93.818L77.6196 97H73.2766L69.5786 93.259V78.424L73.2766 74.683H80.7156V67.244L84.9296 63.03V97ZM80.7156 93.259V75.199L77.4476 78.424H73.8356V93.259H80.7156ZM96.2594 71.028H92.0024V66.771H96.2594V71.028ZM96.2594 97H92.0024V77.951L96.2594 73.651V97ZM115.845 78.424H105.224V82.122H111.072L114.813 85.863V93.259L111.072 97H100.967V93.259H110.556V85.863H104.708L100.967 82.122V78.424L104.708 74.683H112.061L115.845 78.424ZM130.534 74.683L126.793 78.424H124.127V93.259H129.416V97H123.611L119.87 93.259V78.424H114.581L118.322 74.683H119.87V71.544L124.127 67.287V74.683H130.534ZM137.55 71.028H133.293V66.771H137.55V71.028ZM137.55 97H133.293V77.951L137.55 73.651V97ZM158.425 78.424L154.168 82.724V78.424H148.363V93.259H157.909V97H147.804L144.106 93.259V78.424L147.804 74.683H154.684L158.425 78.424ZM167.452 97H162.679V92.227H167.452V97ZM186.398 97H173.111V89.948L182.7 80.316V78.424H173.111V74.683H186.398V81.993L176.981 91.41V93.259H186.398V97ZM205.94 97H201.683V93.818L198.501 97H194.244L190.546 93.259V85.863L194.244 82.122H201.253L197.727 85.82H194.76V93.259H201.683V78.424H189.987L193.169 74.683H202.242L205.94 78.424V97ZM216.948 71.028H212.691V66.771H216.948V71.028ZM216.948 97H212.691V77.951L216.948 73.651V97ZM239.286 97H235.072V78.424H228.192V97H223.935V74.683H228.192V77.908L231.331 74.683H235.588L239.286 78.424V97ZM277.875 93.259L274.177 97H267.641L264.76 94.119L261.965 97H257.063L254.053 93.99L255.257 85.863L258.955 82.122H264.674L261.363 85.347H259.514L257.751 93.259H262.868L265.448 78.424H255.343L259.17 74.683H266.652L269.662 77.736L266.824 93.259H273.661V67.287H250.828V104.439H277.273L273.532 108.137H250.828L246.571 103.88V67.287L250.312 63.546H274.177L277.875 67.287V93.259ZM301.43 74.683L297.732 78.424H288.702V93.259H295.582V82.122H299.839V104.439L296.141 108.137H283.929L287.584 104.439H295.582V93.732L291.325 97H288.186L284.445 93.259V78.424L288.186 74.683H301.43ZM331.288 97H327.031V78.424H320.667V97H316.41V78.424H310.089V97H305.832V74.683H310.089V77.908L313.228 74.683H317.485L320.108 77.392L322.774 74.683H327.547L331.288 78.424V97ZM352.349 97H348.092V93.818L344.91 97H340.653L336.955 93.259V85.863L340.653 82.122H347.662L344.136 85.82H341.169V93.259H348.092V78.424H336.396L339.578 74.683H348.651L352.349 78.424V97ZM363.357 71.028H359.1V66.771H363.357V71.028ZM363.357 97H359.1V77.951L363.357 73.651V97ZM378.255 97H374.041L370.343 93.259V66.728L374.6 62.514V93.259H378.255V97ZM387.17 97H382.397V92.227H387.17V97ZM408.61 78.424L404.353 82.724V78.424H398.548V93.259H408.094V97H397.989L394.291 93.259V78.424L397.989 74.683H404.869L408.61 78.424ZM427.268 93.259L423.57 97H415.615L411.917 93.259V78.424L415.615 74.683H423.57L427.268 78.424V93.259ZM423.054 93.259V78.424H416.174V93.259H423.054ZM459.335 97H455.078V78.424H448.714V97H444.457V78.424H438.136V97H433.879V74.683H438.136V77.908L441.275 74.683H445.532L448.155 77.392L450.821 74.683H455.594L459.335 78.424V97Z"/>
    </mask>
    <path d="M20.221 93.259L16.566 97H9.084V108.137H4.827V74.683H9.084V77.908L12.18 74.683H16.566L20.221 78.424V93.259ZM15.964 93.259V78.424H9.084V96.484L12.18 93.259H15.964ZM41.1378 97H36.8808V93.818L33.6988 97H29.4418L25.7438 93.259V85.863L29.4418 82.122H36.4508L32.9248 85.82H29.9578V93.259H36.8808V78.424H25.1848L28.3668 74.683H37.4398L41.1378 78.424V97ZM63.2398 97H59.0258V78.424H52.1458V97H47.8888V74.683H52.1458V77.908L55.2848 74.683H59.5418L63.2398 78.424V97ZM84.9296 97H80.7156V93.818L77.6196 97H73.2766L69.5786 93.259V78.424L73.2766 74.683H80.7156V67.244L84.9296 63.03V97ZM80.7156 93.259V75.199L77.4476 78.424H73.8356V93.259H80.7156ZM96.2594 71.028H92.0024V66.771H96.2594V71.028ZM96.2594 97H92.0024V77.951L96.2594 73.651V97ZM115.845 78.424H105.224V82.122H111.072L114.813 85.863V93.259L111.072 97H100.967V93.259H110.556V85.863H104.708L100.967 82.122V78.424L104.708 74.683H112.061L115.845 78.424ZM130.534 74.683L126.793 78.424H124.127V93.259H129.416V97H123.611L119.87 93.259V78.424H114.581L118.322 74.683H119.87V71.544L124.127 67.287V74.683H130.534ZM137.55 71.028H133.293V66.771H137.55V71.028ZM137.55 97H133.293V77.951L137.55 73.651V97ZM158.425 78.424L154.168 82.724V78.424H148.363V93.259H157.909V97H147.804L144.106 93.259V78.424L147.804 74.683H154.684L158.425 78.424ZM167.452 97H162.679V92.227H167.452V97ZM186.398 97H173.111V89.948L182.7 80.316V78.424H173.111V74.683H186.398V81.993L176.981 91.41V93.259H186.398V97ZM205.94 97H201.683V93.818L198.501 97H194.244L190.546 93.259V85.863L194.244 82.122H201.253L197.727 85.82H194.76V93.259H201.683V78.424H189.987L193.169 74.683H202.242L205.94 78.424V97ZM216.948 71.028H212.691V66.771H216.948V71.028ZM216.948 97H212.691V77.951L216.948 73.651V97ZM239.286 97H235.072V78.424H228.192V97H223.935V74.683H228.192V77.908L231.331 74.683H235.588L239.286 78.424V97ZM277.875 93.259L274.177 97H267.641L264.76 94.119L261.965 97H257.063L254.053 93.99L255.257 85.863L258.955 82.122H264.674L261.363 85.347H259.514L257.751 93.259H262.868L265.448 78.424H255.343L259.17 74.683H266.652L269.662 77.736L266.824 93.259H273.661V67.287H250.828V104.439H277.273L273.532 108.137H250.828L246.571 103.88V67.287L250.312 63.546H274.177L277.875 67.287V93.259ZM301.43 74.683L297.732 78.424H288.702V93.259H295.582V82.122H299.839V104.439L296.141 108.137H283.929L287.584 104.439H295.582V93.732L291.325 97H288.186L284.445 93.259V78.424L288.186 74.683H301.43ZM331.288 97H327.031V78.424H320.667V97H316.41V78.424H310.089V97H305.832V74.683H310.089V77.908L313.228 74.683H317.485L320.108 77.392L322.774 74.683H327.547L331.288 78.424V97ZM352.349 97H348.092V93.818L344.91 97H340.653L336.955 93.259V85.863L340.653 82.122H347.662L344.136 85.82H341.169V93.259H348.092V78.424H336.396L339.578 74.683H348.651L352.349 78.424V97ZM363.357 71.028H359.1V66.771H363.357V71.028ZM363.357 97H359.1V77.951L363.357 73.651V97ZM378.255 97H374.041L370.343 93.259V66.728L374.6 62.514V93.259H378.255V97ZM387.17 97H382.397V92.227H387.17V97ZM408.61 78.424L404.353 82.724V78.424H398.548V93.259H408.094V97H397.989L394.291 93.259V78.424L397.989 74.683H404.869L408.61 78.424ZM427.268 93.259L423.57 97H415.615L411.917 93.259V78.424L415.615 74.683H423.57L427.268 78.424V93.259ZM423.054 93.259V78.424H416.174V93.259H423.054ZM459.335 97H455.078V78.424H448.714V97H444.457V78.424H438.136V97H433.879V74.683H438.136V77.908L441.275 74.683H445.532L448.155 77.392L450.821 74.683H455.594L459.335 78.424V97Z" fill="white"/>
    <path d="M20.221 93.259L20.9363 93.9578L21.221 93.6664V93.259H20.221ZM16.566 97V98H16.987L17.2813 97.6988L16.566 97ZM9.084 97V96H8.084V97H9.084ZM9.084 108.137V109.137H10.084V108.137H9.084ZM4.827 108.137H3.827V109.137H4.827V108.137ZM4.827 74.683V73.683H3.827V74.683H4.827ZM9.084 74.683H10.084V73.683H9.084V74.683ZM9.084 77.908H8.084V80.3936L9.80539 78.6005L9.084 77.908ZM12.18 74.683V73.683H11.7538L11.4586 73.9905L12.18 74.683ZM16.566 74.683L17.2813 73.9842L16.987 73.683H16.566V74.683ZM20.221 78.424H21.221V78.0166L20.9363 77.7252L20.221 78.424ZM15.964 93.259V94.259H16.964V93.259H15.964ZM15.964 78.424H16.964V77.424H15.964V78.424ZM9.084 78.424V77.424H8.084V78.424H9.084ZM9.084 96.484H8.084V98.9696L9.80539 97.1765L9.084 96.484ZM12.18 93.259V92.259H11.7538L11.4586 92.5665L12.18 93.259ZM19.5057 92.5602L15.8507 96.3012L17.2813 97.6988L20.9363 93.9578L19.5057 92.5602ZM16.566 96H9.084V98H16.566V96ZM8.084 97V108.137H10.084V97H8.084ZM9.084 107.137H4.827V109.137H9.084V107.137ZM5.827 108.137V74.683H3.827V108.137H5.827ZM4.827 75.683H9.084V73.683H4.827V75.683ZM8.084 74.683V77.908H10.084V74.683H8.084ZM9.80539 78.6005L12.9014 75.3755L11.4586 73.9905L8.36261 77.2155L9.80539 78.6005ZM12.18 75.683H16.566V73.683H12.18V75.683ZM15.8507 75.3818L19.5057 79.1228L20.9363 77.7252L17.2813 73.9842L15.8507 75.3818ZM19.221 78.424V93.259H21.221V78.424H19.221ZM16.964 93.259V78.424H14.964V93.259H16.964ZM15.964 77.424H9.084V79.424H15.964V77.424ZM8.084 78.424V96.484H10.084V78.424H8.084ZM9.80539 97.1765L12.9014 93.9515L11.4586 92.5665L8.36261 95.7915L9.80539 97.1765ZM12.18 94.259H15.964V92.259H12.18V94.259ZM41.1378 97V98H42.1378V97H41.1378ZM36.8808 97H35.8808V98H36.8808V97ZM36.8808 93.818H37.8808V91.4038L36.1737 93.1109L36.8808 93.818ZM33.6988 97V98H34.113L34.4059 97.7071L33.6988 97ZM29.4418 97L28.7306 97.703L29.0242 98H29.4418V97ZM25.7438 93.259H24.7438V93.6698L25.0326 93.962L25.7438 93.259ZM25.7438 85.863L25.0326 85.16L24.7438 85.4522V85.863H25.7438ZM29.4418 82.122V81.122H29.0242L28.7306 81.419L29.4418 82.122ZM36.4508 82.122L37.1746 82.8121L38.786 81.122H36.4508V82.122ZM32.9248 85.82V86.82H33.353L33.6486 86.5101L32.9248 85.82ZM29.9578 85.82V84.82H28.9578V85.82H29.9578ZM29.9578 93.259H28.9578V94.259H29.9578V93.259ZM36.8808 93.259V94.259H37.8808V93.259H36.8808ZM36.8808 78.424H37.8808V77.424H36.8808V78.424ZM25.1848 78.424L24.4231 77.7761L23.0214 79.424H25.1848V78.424ZM28.3668 74.683V73.683H27.9046L27.6051 74.0351L28.3668 74.683ZM37.4398 74.683L38.151 73.98L37.8574 73.683H37.4398V74.683ZM41.1378 78.424H42.1378V78.0132L41.849 77.721L41.1378 78.424ZM41.1378 96H36.8808V98H41.1378V96ZM37.8808 97V93.818H35.8808V97H37.8808ZM36.1737 93.1109L32.9917 96.2929L34.4059 97.7071L37.5879 94.5251L36.1737 93.1109ZM33.6988 96H29.4418V98H33.6988V96ZM30.153 96.297L26.455 92.556L25.0326 93.962L28.7306 97.703L30.153 96.297ZM26.7438 93.259V85.863H24.7438V93.259H26.7438ZM26.455 86.566L30.153 82.825L28.7306 81.419L25.0326 85.16L26.455 86.566ZM29.4418 83.122H36.4508V81.122H29.4418V83.122ZM35.7271 81.4319L32.2011 85.1299L33.6486 86.5101L37.1746 82.8121L35.7271 81.4319ZM32.9248 84.82H29.9578V86.82H32.9248V84.82ZM28.9578 85.82V93.259H30.9578V85.82H28.9578ZM29.9578 94.259H36.8808V92.259H29.9578V94.259ZM37.8808 93.259V78.424H35.8808V93.259H37.8808ZM36.8808 77.424H25.1848V79.424H36.8808V77.424ZM25.9465 79.0719L29.1285 75.3309L27.6051 74.0351L24.4231 77.7761L25.9465 79.0719ZM28.3668 75.683H37.4398V73.683H28.3668V75.683ZM36.7286 75.386L40.4266 79.127L41.849 77.721L38.151 73.98L36.7286 75.386ZM40.1378 78.424V97H42.1378V78.424H40.1378ZM63.2398 97V98H64.2398V97H63.2398ZM59.0258 97H58.0258V98H59.0258V97ZM59.0258 78.424H60.0258V77.424H59.0258V78.424ZM52.1458 78.424V77.424H51.1458V78.424H52.1458ZM52.1458 97V98H53.1458V97H52.1458ZM47.8888 97H46.8888V98H47.8888V97ZM47.8888 74.683V73.683H46.8888V74.683H47.8888ZM52.1458 74.683H53.1458V73.683H52.1458V74.683ZM52.1458 77.908H51.1458V80.3691L52.8624 78.6055L52.1458 77.908ZM55.2848 74.683V73.683H54.8627L54.5682 73.9855L55.2848 74.683ZM59.5418 74.683L60.253 73.98L59.9594 73.683H59.5418V74.683ZM63.2398 78.424H64.2398V78.0132L63.951 77.721L63.2398 78.424ZM63.2398 96H59.0258V98H63.2398V96ZM60.0258 97V78.424H58.0258V97H60.0258ZM59.0258 77.424H52.1458V79.424H59.0258V77.424ZM51.1458 78.424V97H53.1458V78.424H51.1458ZM52.1458 96H47.8888V98H52.1458V96ZM48.8888 97V74.683H46.8888V97H48.8888ZM47.8888 75.683H52.1458V73.683H47.8888V75.683ZM51.1458 74.683V77.908H53.1458V74.683H51.1458ZM52.8624 78.6055L56.0014 75.3805L54.5682 73.9855L51.4292 77.2105L52.8624 78.6055ZM55.2848 75.683H59.5418V73.683H55.2848V75.683ZM58.8306 75.386L62.5286 79.127L63.951 77.721L60.253 73.98L58.8306 75.386ZM62.2398 78.424V97H64.2398V78.424H62.2398ZM84.9296 97V98H85.9296V97H84.9296ZM80.7156 97H79.7156V98H80.7156V97ZM80.7156 93.818H81.7156V91.3562L79.9989 93.1206L80.7156 93.818ZM77.6196 97V98H78.0419L78.3363 97.6974L77.6196 97ZM73.2766 97L72.5654 97.703L72.859 98H73.2766V97ZM69.5786 93.259H68.5786V93.6698L68.8674 93.962L69.5786 93.259ZM69.5786 78.424L68.8674 77.721L68.5786 78.0132V78.424H69.5786ZM73.2766 74.683V73.683H72.859L72.5654 73.98L73.2766 74.683ZM80.7156 74.683V75.683H81.7156V74.683H80.7156ZM80.7156 67.244L80.0085 66.5369L79.7156 66.8298V67.244H80.7156ZM84.9296 63.03H85.9296V60.6158L84.2225 62.3229L84.9296 63.03ZM80.7156 93.259V94.259H81.7156V93.259H80.7156ZM80.7156 75.199H81.7156V72.8072L80.0132 74.4872L80.7156 75.199ZM77.4476 78.424V79.424H77.858L78.15 79.1358L77.4476 78.424ZM73.8356 78.424V77.424H72.8356V78.424H73.8356ZM73.8356 93.259H72.8356V94.259H73.8356V93.259ZM84.9296 96H80.7156V98H84.9296V96ZM81.7156 97V93.818H79.7156V97H81.7156ZM79.9989 93.1206L76.9029 96.3026L78.3363 97.6974L81.4323 94.5154L79.9989 93.1206ZM77.6196 96H73.2766V98H77.6196V96ZM73.9878 96.297L70.2898 92.556L68.8674 93.962L72.5654 97.703L73.9878 96.297ZM70.5786 93.259V78.424H68.5786V93.259H70.5786ZM70.2898 79.127L73.9878 75.386L72.5654 73.98L68.8674 77.721L70.2898 79.127ZM73.2766 75.683H80.7156V73.683H73.2766V75.683ZM81.7156 74.683V67.244H79.7156V74.683H81.7156ZM81.4227 67.9511L85.6367 63.7371L84.2225 62.3229L80.0085 66.5369L81.4227 67.9511ZM83.9296 63.03V97H85.9296V63.03H83.9296ZM81.7156 93.259V75.199H79.7156V93.259H81.7156ZM80.0132 74.4872L76.7452 77.7122L78.15 79.1358L81.418 75.9108L80.0132 74.4872ZM77.4476 77.424H73.8356V79.424H77.4476V77.424ZM72.8356 78.424V93.259H74.8356V78.424H72.8356ZM73.8356 94.259H80.7156V92.259H73.8356V94.259ZM96.2594 71.028V72.028H97.2594V71.028H96.2594ZM92.0024 71.028H91.0024V72.028H92.0024V71.028ZM92.0024 66.771V65.771H91.0024V66.771H92.0024ZM96.2594 66.771H97.2594V65.771H96.2594V66.771ZM96.2594 97V98H97.2594V97H96.2594ZM92.0024 97H91.0024V98H92.0024V97ZM92.0024 77.951L91.2918 77.2475L91.0024 77.5397V77.951H92.0024ZM96.2594 73.651H97.2594V71.2195L95.5488 72.9475L96.2594 73.651ZM96.2594 70.028H92.0024V72.028H96.2594V70.028ZM93.0024 71.028V66.771H91.0024V71.028H93.0024ZM92.0024 67.771H96.2594V65.771H92.0024V67.771ZM95.2594 66.771V71.028H97.2594V66.771H95.2594ZM96.2594 96H92.0024V98H96.2594V96ZM93.0024 97V77.951H91.0024V97H93.0024ZM92.7131 78.6545L96.9701 74.3545L95.5488 72.9475L91.2918 77.2475L92.7131 78.6545ZM95.2594 73.651V97H97.2594V73.651H95.2594ZM115.845 78.424V79.424H118.279L116.548 77.7129L115.845 78.424ZM105.224 78.424V77.424H104.224V78.424H105.224ZM105.224 82.122H104.224V83.122H105.224V82.122ZM111.072 82.122L111.779 81.4149L111.486 81.122H111.072V82.122ZM114.813 85.863H115.813V85.4488L115.52 85.1559L114.813 85.863ZM114.813 93.259L115.52 93.9661L115.813 93.6732V93.259H114.813ZM111.072 97V98H111.486L111.779 97.7071L111.072 97ZM100.967 97H99.9673V98H100.967V97ZM100.967 93.259V92.259H99.9673V93.259H100.967ZM110.556 93.259V94.259H111.556V93.259H110.556ZM110.556 85.863H111.556V84.863H110.556V85.863ZM104.708 85.863L104.001 86.5701L104.294 86.863H104.708V85.863ZM100.967 82.122H99.9673V82.5362L100.26 82.8291L100.967 82.122ZM100.967 78.424L100.26 77.7169L99.9673 78.0098V78.424H100.967ZM104.708 74.683V73.683H104.294L104.001 73.9759L104.708 74.683ZM112.061 74.683L112.764 73.9719L112.472 73.683H112.061V74.683ZM115.845 77.424H105.224V79.424H115.845V77.424ZM104.224 78.424V82.122H106.224V78.424H104.224ZM105.224 83.122H111.072V81.122H105.224V83.122ZM110.365 82.8291L114.106 86.5701L115.52 85.1559L111.779 81.4149L110.365 82.8291ZM113.813 85.863V93.259H115.813V85.863H113.813ZM114.106 92.5519L110.365 96.2929L111.779 97.7071L115.52 93.9661L114.106 92.5519ZM111.072 96H100.967V98H111.072V96ZM101.967 97V93.259H99.9673V97H101.967ZM100.967 94.259H110.556V92.259H100.967V94.259ZM111.556 93.259V85.863H109.556V93.259H111.556ZM110.556 84.863H104.708V86.863H110.556V84.863ZM105.415 85.1559L101.674 81.4149L100.26 82.8291L104.001 86.5701L105.415 85.1559ZM101.967 82.122V78.424H99.9673V82.122H101.967ZM101.674 79.1311L105.415 75.3901L104.001 73.9759L100.26 77.7169L101.674 79.1311ZM104.708 75.683H112.061V73.683H104.708V75.683ZM111.358 75.3941L115.142 79.1351L116.548 77.7129L112.764 73.9719L111.358 75.3941ZM130.534 74.683L131.241 75.3901L132.948 73.683H130.534V74.683ZM126.793 78.424V79.424H127.207L127.5 79.1311L126.793 78.424ZM124.127 78.424V77.424H123.127V78.424H124.127ZM124.127 93.259H123.127V94.259H124.127V93.259ZM129.416 93.259H130.416V92.259H129.416V93.259ZM129.416 97V98H130.416V97H129.416ZM123.611 97L122.904 97.7071L123.197 98H123.611V97ZM119.87 93.259H118.87V93.6732L119.163 93.9661L119.87 93.259ZM119.87 78.424H120.87V77.424H119.87V78.424ZM114.581 78.424L113.874 77.7169L112.167 79.424H114.581V78.424ZM118.322 74.683V73.683H117.908L117.615 73.9759L118.322 74.683ZM119.87 74.683V75.683H120.87V74.683H119.87ZM119.87 71.544L119.163 70.8369L118.87 71.1298V71.544H119.87ZM124.127 67.287H125.127V64.8728L123.42 66.5799L124.127 67.287ZM124.127 74.683H123.127V75.683H124.127V74.683ZM129.827 73.9759L126.086 77.7169L127.5 79.1311L131.241 75.3901L129.827 73.9759ZM126.793 77.424H124.127V79.424H126.793V77.424ZM123.127 78.424V93.259H125.127V78.424H123.127ZM124.127 94.259H129.416V92.259H124.127V94.259ZM128.416 93.259V97H130.416V93.259H128.416ZM129.416 96H123.611V98H129.416V96ZM124.318 96.2929L120.577 92.5519L119.163 93.9661L122.904 97.7071L124.318 96.2929ZM120.87 93.259V78.424H118.87V93.259H120.87ZM119.87 77.424H114.581V79.424H119.87V77.424ZM115.288 79.1311L119.029 75.3901L117.615 73.9759L113.874 77.7169L115.288 79.1311ZM118.322 75.683H119.87V73.683H118.322V75.683ZM120.87 74.683V71.544H118.87V74.683H120.87ZM120.577 72.2511L124.834 67.9941L123.42 66.5799L119.163 70.8369L120.577 72.2511ZM123.127 67.287V74.683H125.127V67.287H123.127ZM124.127 75.683H130.534V73.683H124.127V75.683ZM137.55 71.028V72.028H138.55V71.028H137.55ZM133.293 71.028H132.293V72.028H133.293V71.028ZM133.293 66.771V65.771H132.293V66.771H133.293ZM137.55 66.771H138.55V65.771H137.55V66.771ZM137.55 97V98H138.55V97H137.55ZM133.293 97H132.293V98H133.293V97ZM133.293 77.951L132.582 77.2475L132.293 77.5397V77.951H133.293ZM137.55 73.651H138.55V71.2195L136.839 72.9475L137.55 73.651ZM137.55 70.028H133.293V72.028H137.55V70.028ZM134.293 71.028V66.771H132.293V71.028H134.293ZM133.293 67.771H137.55V65.771H133.293V67.771ZM136.55 66.771V71.028H138.55V66.771H136.55ZM137.55 96H133.293V98H137.55V96ZM134.293 97V77.951H132.293V97H134.293ZM134.003 78.6545L138.26 74.3545L136.839 72.9475L132.582 77.2475L134.003 78.6545ZM136.55 73.651V97H138.55V73.651H136.55ZM158.425 78.424L159.136 79.1275L159.836 78.4205L159.132 77.7169L158.425 78.424ZM154.168 82.724H153.168V85.1555L154.879 83.4275L154.168 82.724ZM154.168 78.424H155.168V77.424H154.168V78.424ZM148.363 78.424V77.424H147.363V78.424H148.363ZM148.363 93.259H147.363V94.259H148.363V93.259ZM157.909 93.259H158.909V92.259H157.909V93.259ZM157.909 97V98H158.909V97H157.909ZM147.804 97L147.093 97.703L147.387 98H147.804V97ZM144.106 93.259H143.106V93.6698L143.395 93.962L144.106 93.259ZM144.106 78.424L143.395 77.721L143.106 78.0132V78.424H144.106ZM147.804 74.683V73.683H147.387L147.093 73.98L147.804 74.683ZM154.684 74.683L155.391 73.9759L155.099 73.683H154.684V74.683ZM157.715 77.7205L153.458 82.0205L154.879 83.4275L159.136 79.1275L157.715 77.7205ZM155.168 82.724V78.424H153.168V82.724H155.168ZM154.168 77.424H148.363V79.424H154.168V77.424ZM147.363 78.424V93.259H149.363V78.424H147.363ZM148.363 94.259H157.909V92.259H148.363V94.259ZM156.909 93.259V97H158.909V93.259H156.909ZM157.909 96H147.804V98H157.909V96ZM148.516 96.297L144.818 92.556L143.395 93.962L147.093 97.703L148.516 96.297ZM145.106 93.259V78.424H143.106V93.259H145.106ZM144.818 79.127L148.516 75.386L147.093 73.98L143.395 77.721L144.818 79.127ZM147.804 75.683H154.684V73.683H147.804V75.683ZM153.977 75.3901L157.718 79.1311L159.132 77.7169L155.391 73.9759L153.977 75.3901ZM167.452 97V98H168.452V97H167.452ZM162.679 97H161.679V98H162.679V97ZM162.679 92.227V91.227H161.679V92.227H162.679ZM167.452 92.227H168.452V91.227H167.452V92.227ZM167.452 96H162.679V98H167.452V96ZM163.679 97V92.227H161.679V97H163.679ZM162.679 93.227H167.452V91.227H162.679V93.227ZM166.452 92.227V97H168.452V92.227H166.452ZM186.398 97V98H187.398V97H186.398ZM173.111 97H172.111V98H173.111V97ZM173.111 89.948L172.402 89.2425L172.111 89.5351V89.948H173.111ZM182.7 80.316L183.408 81.0215L183.7 80.7289V80.316H182.7ZM182.7 78.424H183.7V77.424H182.7V78.424ZM173.111 78.424H172.111V79.424H173.111V78.424ZM173.111 74.683V73.683H172.111V74.683H173.111ZM186.398 74.683H187.398V73.683H186.398V74.683ZM186.398 81.993L187.105 82.7001L187.398 82.4072V81.993H186.398ZM176.981 91.41L176.273 90.7029L175.981 90.9958V91.41H176.981ZM176.981 93.259H175.981V94.259H176.981V93.259ZM186.398 93.259H187.398V92.259H186.398V93.259ZM186.398 96H173.111V98H186.398V96ZM174.111 97V89.948H172.111V97H174.111ZM173.819 90.6535L183.408 81.0215L181.991 79.6105L172.402 89.2425L173.819 90.6535ZM183.7 80.316V78.424H181.7V80.316H183.7ZM182.7 77.424H173.111V79.424H182.7V77.424ZM174.111 78.424V74.683H172.111V78.424H174.111ZM173.111 75.683H186.398V73.683H173.111V75.683ZM185.398 74.683V81.993H187.398V74.683H185.398ZM185.69 81.2859L176.273 90.7029L177.688 92.1171L187.105 82.7001L185.69 81.2859ZM175.981 91.41V93.259H177.981V91.41H175.981ZM176.981 94.259H186.398V92.259H176.981V94.259ZM185.398 93.259V97H187.398V93.259H185.398ZM205.94 97V98H206.94V97H205.94ZM201.683 97H200.683V98H201.683V97ZM201.683 93.818H202.683V91.4038L200.976 93.1109L201.683 93.818ZM198.501 97V98H198.916L199.208 97.7071L198.501 97ZM194.244 97L193.533 97.703L193.827 98H194.244V97ZM190.546 93.259H189.546V93.6698L189.835 93.962L190.546 93.259ZM190.546 85.863L189.835 85.16L189.546 85.4522V85.863H190.546ZM194.244 82.122V81.122H193.827L193.533 81.419L194.244 82.122ZM201.253 82.122L201.977 82.8121L203.589 81.122H201.253V82.122ZM197.727 85.82V86.82H198.156L198.451 86.5101L197.727 85.82ZM194.76 85.82V84.82H193.76V85.82H194.76ZM194.76 93.259H193.76V94.259H194.76V93.259ZM201.683 93.259V94.259H202.683V93.259H201.683ZM201.683 78.424H202.683V77.424H201.683V78.424ZM189.987 78.424L189.226 77.7761L187.824 79.424H189.987V78.424ZM193.169 74.683V73.683H192.707L192.408 74.0351L193.169 74.683ZM202.242 74.683L202.954 73.98L202.66 73.683H202.242V74.683ZM205.94 78.424H206.94V78.0132L206.652 77.721L205.94 78.424ZM205.94 96H201.683V98H205.94V96ZM202.683 97V93.818H200.683V97H202.683ZM200.976 93.1109L197.794 96.2929L199.208 97.7071L202.39 94.5251L200.976 93.1109ZM198.501 96H194.244V98H198.501V96ZM194.956 96.297L191.258 92.556L189.835 93.962L193.533 97.703L194.956 96.297ZM191.546 93.259V85.863H189.546V93.259H191.546ZM191.258 86.566L194.956 82.825L193.533 81.419L189.835 85.16L191.258 86.566ZM194.244 83.122H201.253V81.122H194.244V83.122ZM200.53 81.4319L197.004 85.1299L198.451 86.5101L201.977 82.8121L200.53 81.4319ZM197.727 84.82H194.76V86.82H197.727V84.82ZM193.76 85.82V93.259H195.76V85.82H193.76ZM194.76 94.259H201.683V92.259H194.76V94.259ZM202.683 93.259V78.424H200.683V93.259H202.683ZM201.683 77.424H189.987V79.424H201.683V77.424ZM190.749 79.0719L193.931 75.3309L192.408 74.0351L189.226 77.7761L190.749 79.0719ZM193.169 75.683H202.242V73.683H193.169V75.683ZM201.531 75.386L205.229 79.127L206.652 77.721L202.954 73.98L201.531 75.386ZM204.94 78.424V97H206.94V78.424H204.94ZM216.948 71.028V72.028H217.948V71.028H216.948ZM212.691 71.028H211.691V72.028H212.691V71.028ZM212.691 66.771V65.771H211.691V66.771H212.691ZM216.948 66.771H217.948V65.771H216.948V66.771ZM216.948 97V98H217.948V97H216.948ZM212.691 97H211.691V98H212.691V97ZM212.691 77.951L211.981 77.2475L211.691 77.5397V77.951H212.691ZM216.948 73.651H217.948V71.2195L216.238 72.9475L216.948 73.651ZM216.948 70.028H212.691V72.028H216.948V70.028ZM213.691 71.028V66.771H211.691V71.028H213.691ZM212.691 67.771H216.948V65.771H212.691V67.771ZM215.948 66.771V71.028H217.948V66.771H215.948ZM216.948 96H212.691V98H216.948V96ZM213.691 97V77.951H211.691V97H213.691ZM213.402 78.6545L217.659 74.3545L216.238 72.9475L211.981 77.2475L213.402 78.6545ZM215.948 73.651V97H217.948V73.651H215.948ZM239.286 97V98H240.286V97H239.286ZM235.072 97H234.072V98H235.072V97ZM235.072 78.424H236.072V77.424H235.072V78.424ZM228.192 78.424V77.424H227.192V78.424H228.192ZM228.192 97V98H229.192V97H228.192ZM223.935 97H222.935V98H223.935V97ZM223.935 74.683V73.683H222.935V74.683H223.935ZM228.192 74.683H229.192V73.683H228.192V74.683ZM228.192 77.908H227.192V80.3691L228.909 78.6055L228.192 77.908ZM231.331 74.683V73.683H230.909L230.615 73.9855L231.331 74.683ZM235.588 74.683L236.299 73.98L236.006 73.683H235.588V74.683ZM239.286 78.424H240.286V78.0132L239.997 77.721L239.286 78.424ZM239.286 96H235.072V98H239.286V96ZM236.072 97V78.424H234.072V97H236.072ZM235.072 77.424H228.192V79.424H235.072V77.424ZM227.192 78.424V97H229.192V78.424H227.192ZM228.192 96H223.935V98H228.192V96ZM224.935 97V74.683H222.935V97H224.935ZM223.935 75.683H228.192V73.683H223.935V75.683ZM227.192 74.683V77.908H229.192V74.683H227.192ZM228.909 78.6055L232.048 75.3805L230.615 73.9855L227.476 77.2105L228.909 78.6055ZM231.331 75.683H235.588V73.683H231.331V75.683ZM234.877 75.386L238.575 79.127L239.997 77.721L236.299 73.98L234.877 75.386ZM238.286 78.424V97H240.286V78.424H238.286ZM277.875 93.259L278.586 93.962L278.875 93.6698V93.259H277.875ZM274.177 97V98H274.595L274.888 97.703L274.177 97ZM267.641 97L266.934 97.7071L267.227 98H267.641V97ZM264.76 94.119L265.467 93.4119L264.749 92.694L264.042 93.4227L264.76 94.119ZM261.965 97V98H262.388L262.683 97.6963L261.965 97ZM257.063 97L256.356 97.7071L256.649 98H257.063V97ZM254.053 93.99L253.064 93.8435L252.99 94.3413L253.346 94.6971L254.053 93.99ZM255.257 85.863L254.546 85.16L254.316 85.3927L254.268 85.7165L255.257 85.863ZM258.955 82.122V81.122H258.537L258.244 81.419L258.955 82.122ZM264.674 82.122L265.372 82.8383L267.134 81.122H264.674V82.122ZM261.363 85.347V86.347H261.77L262.061 86.0633L261.363 85.347ZM259.514 85.347V84.347H258.712L258.538 85.1295L259.514 85.347ZM257.751 93.259L256.775 93.0415L256.504 94.259H257.751V93.259ZM262.868 93.259V94.259H263.709L263.853 93.4303L262.868 93.259ZM265.448 78.424L266.433 78.5953L266.637 77.424H265.448V78.424ZM255.343 78.424L254.644 77.7089L252.889 79.424H255.343V78.424ZM259.17 74.683V73.683H258.762L258.471 73.9679L259.17 74.683ZM266.652 74.683L267.364 73.9809L267.07 73.683H266.652V74.683ZM269.662 77.736L270.646 77.9158L270.739 77.4043L270.374 77.0339L269.662 77.736ZM266.824 93.259L265.84 93.0792L265.625 94.259H266.824V93.259ZM273.661 93.259V94.259H274.661V93.259H273.661ZM273.661 67.287H274.661V66.287H273.661V67.287ZM250.828 67.287V66.287H249.828V67.287H250.828ZM250.828 104.439H249.828V105.439H250.828V104.439ZM277.273 104.439L277.976 105.15L279.707 103.439H277.273V104.439ZM273.532 108.137V109.137H273.943L274.235 108.848L273.532 108.137ZM250.828 108.137L250.121 108.844L250.414 109.137H250.828V108.137ZM246.571 103.88H245.571V104.294L245.864 104.587L246.571 103.88ZM246.571 67.287L245.864 66.5799L245.571 66.8728V67.287H246.571ZM250.312 63.546V62.546H249.898L249.605 62.8389L250.312 63.546ZM274.177 63.546L274.888 62.843L274.595 62.546H274.177V63.546ZM277.875 67.287H278.875V66.8762L278.586 66.584L277.875 67.287ZM277.164 92.556L273.466 96.297L274.888 97.703L278.586 93.962L277.164 92.556ZM274.177 96H267.641V98H274.177V96ZM268.348 96.2929L265.467 93.4119L264.053 94.8261L266.934 97.7071L268.348 96.2929ZM264.042 93.4227L261.247 96.3037L262.683 97.6963L265.478 94.8153L264.042 93.4227ZM261.965 96H257.063V98H261.965V96ZM257.77 96.2929L254.76 93.2829L253.346 94.6971L256.356 97.7071L257.77 96.2929ZM255.042 94.1365L256.246 86.0095L254.268 85.7165L253.064 93.8435L255.042 94.1365ZM255.968 86.566L259.666 82.825L258.244 81.419L254.546 85.16L255.968 86.566ZM258.955 83.122H264.674V81.122H258.955V83.122ZM263.976 81.4057L260.665 84.6306L262.061 86.0633L265.372 82.8383L263.976 81.4057ZM261.363 84.347H259.514V86.347H261.363V84.347ZM258.538 85.1295L256.775 93.0415L258.727 93.4765L260.49 85.5645L258.538 85.1295ZM257.751 94.259H262.868V92.259H257.751V94.259ZM263.853 93.4303L266.433 78.5953L264.463 78.2527L261.883 93.0877L263.853 93.4303ZM265.448 77.424H255.343V79.424H265.448V77.424ZM256.042 79.1391L259.869 75.3981L258.471 73.9679L254.644 77.7089L256.042 79.1391ZM259.17 75.683H266.652V73.683H259.17V75.683ZM265.94 75.3851L268.95 78.4381L270.374 77.0339L267.364 73.9809L265.94 75.3851ZM268.678 77.5562L265.84 93.0792L267.808 93.4388L270.646 77.9158L268.678 77.5562ZM266.824 94.259H273.661V92.259H266.824V94.259ZM274.661 93.259V67.287H272.661V93.259H274.661ZM273.661 66.287H250.828V68.287H273.661V66.287ZM249.828 67.287V104.439H251.828V67.287H249.828ZM250.828 105.439H277.273V103.439H250.828V105.439ZM276.57 103.728L272.829 107.426L274.235 108.848L277.976 105.15L276.57 103.728ZM273.532 107.137H250.828V109.137H273.532V107.137ZM251.535 107.43L247.278 103.173L245.864 104.587L250.121 108.844L251.535 107.43ZM247.571 103.88V67.287H245.571V103.88H247.571ZM247.278 67.9941L251.019 64.2531L249.605 62.8389L245.864 66.5799L247.278 67.9941ZM250.312 64.546H274.177V62.546H250.312V64.546ZM273.466 64.249L277.164 67.99L278.586 66.584L274.888 62.843L273.466 64.249ZM276.875 67.287V93.259H278.875V67.287H276.875ZM301.43 74.683L302.141 75.386L303.824 73.683H301.43V74.683ZM297.732 78.424V79.424H298.149L298.443 79.127L297.732 78.424ZM288.702 78.424V77.424H287.702V78.424H288.702ZM288.702 93.259H287.702V94.259H288.702V93.259ZM295.582 93.259V94.259H296.582V93.259H295.582ZM295.582 82.122V81.122H294.582V82.122H295.582ZM299.839 82.122H300.839V81.122H299.839V82.122ZM299.839 104.439L300.546 105.146L300.839 104.853V104.439H299.839ZM296.141 108.137V109.137H296.555L296.848 108.844L296.141 108.137ZM283.929 108.137L283.217 107.434L281.534 109.137H283.929V108.137ZM287.584 104.439V103.439H287.166L286.872 103.736L287.584 104.439ZM295.582 104.439V105.439H296.582V104.439H295.582ZM295.582 93.732H296.582V91.7036L294.973 92.9388L295.582 93.732ZM291.325 97V98H291.664L291.934 97.7932L291.325 97ZM288.186 97L287.478 97.7071L287.771 98H288.186V97ZM284.445 93.259H283.445V93.6732L283.737 93.9661L284.445 93.259ZM284.445 78.424L283.737 77.7169L283.445 78.0098V78.424H284.445ZM288.186 74.683V73.683H287.771L287.478 73.9759L288.186 74.683ZM300.718 73.98L297.02 77.721L298.443 79.127L302.141 75.386L300.718 73.98ZM297.732 77.424H288.702V79.424H297.732V77.424ZM287.702 78.424V93.259H289.702V78.424H287.702ZM288.702 94.259H295.582V92.259H288.702V94.259ZM296.582 93.259V82.122H294.582V93.259H296.582ZM295.582 83.122H299.839V81.122H295.582V83.122ZM298.839 82.122V104.439H300.839V82.122H298.839ZM299.131 103.732L295.433 107.43L296.848 108.844L300.546 105.146L299.131 103.732ZM296.141 107.137H283.929V109.137H296.141V107.137ZM284.64 108.84L288.295 105.142L286.872 103.736L283.217 107.434L284.64 108.84ZM287.584 105.439H295.582V103.439H287.584V105.439ZM296.582 104.439V93.732H294.582V104.439H296.582ZM294.973 92.9388L290.716 96.2068L291.934 97.7932L296.191 94.5252L294.973 92.9388ZM291.325 96H288.186V98H291.325V96ZM288.893 96.2929L285.152 92.5519L283.737 93.9661L287.478 97.7071L288.893 96.2929ZM285.445 93.259V78.424H283.445V93.259H285.445ZM285.152 79.1311L288.893 75.3901L287.478 73.9759L283.737 77.7169L285.152 79.1311ZM288.186 75.683H301.43V73.683H288.186V75.683ZM331.288 97V98H332.288V97H331.288ZM327.031 97H326.031V98H327.031V97ZM327.031 78.424H328.031V77.424H327.031V78.424ZM320.667 78.424V77.424H319.667V78.424H320.667ZM320.667 97V98H321.667V97H320.667ZM316.41 97H315.41V98H316.41V97ZM316.41 78.424H317.41V77.424H316.41V78.424ZM310.089 78.424V77.424H309.089V78.424H310.089ZM310.089 97V98H311.089V97H310.089ZM305.832 97H304.832V98H305.832V97ZM305.832 74.683V73.683H304.832V74.683H305.832ZM310.089 74.683H311.089V73.683H310.089V74.683ZM310.089 77.908H309.089V80.3691L310.805 78.6055L310.089 77.908ZM313.228 74.683V73.683H312.806L312.511 73.9855L313.228 74.683ZM317.485 74.683L318.203 73.9874L317.908 73.683H317.485V74.683ZM320.108 77.392L319.389 78.0876L320.102 78.8236L320.82 78.0934L320.108 77.392ZM322.774 74.683V73.683H322.355L322.061 73.9816L322.774 74.683ZM327.547 74.683L328.254 73.9759L327.961 73.683H327.547V74.683ZM331.288 78.424H332.288V78.0098L331.995 77.7169L331.288 78.424ZM331.288 96H327.031V98H331.288V96ZM328.031 97V78.424H326.031V97H328.031ZM327.031 77.424H320.667V79.424H327.031V77.424ZM319.667 78.424V97H321.667V78.424H319.667ZM320.667 96H316.41V98H320.667V96ZM317.41 97V78.424H315.41V97H317.41ZM316.41 77.424H310.089V79.424H316.41V77.424ZM309.089 78.424V97H311.089V78.424H309.089ZM310.089 96H305.832V98H310.089V96ZM306.832 97V74.683H304.832V97H306.832ZM305.832 75.683H310.089V73.683H305.832V75.683ZM309.089 74.683V77.908H311.089V74.683H309.089ZM310.805 78.6055L313.944 75.3805L312.511 73.9855L309.372 77.2105L310.805 78.6055ZM313.228 75.683H317.485V73.683H313.228V75.683ZM316.766 75.3786L319.389 78.0876L320.826 76.6964L318.203 73.9874L316.766 75.3786ZM320.82 78.0934L323.486 75.3844L322.061 73.9816L319.395 76.6906L320.82 78.0934ZM322.774 75.683H327.547V73.683H322.774V75.683ZM326.84 75.3901L330.581 79.1311L331.995 77.7169L328.254 73.9759L326.84 75.3901ZM330.288 78.424V97H332.288V78.424H330.288ZM352.349 97V98H353.349V97H352.349ZM348.092 97H347.092V98H348.092V97ZM348.092 93.818H349.092V91.4038L347.385 93.1109L348.092 93.818ZM344.91 97V98H345.324L345.617 97.7071L344.91 97ZM340.653 97L339.941 97.703L340.235 98H340.653V97ZM336.955 93.259H335.955V93.6698L336.243 93.962L336.955 93.259ZM336.955 85.863L336.243 85.16L335.955 85.4522V85.863H336.955ZM340.653 82.122V81.122H340.235L339.941 81.419L340.653 82.122ZM347.662 82.122L348.385 82.8121L349.997 81.122H347.662V82.122ZM344.136 85.82V86.82H344.564L344.859 86.5101L344.136 85.82ZM341.169 85.82V84.82H340.169V85.82H341.169ZM341.169 93.259H340.169V94.259H341.169V93.259ZM348.092 93.259V94.259H349.092V93.259H348.092ZM348.092 78.424H349.092V77.424H348.092V78.424ZM336.396 78.424L335.634 77.7761L334.232 79.424H336.396V78.424ZM339.578 74.683V73.683H339.115L338.816 74.0351L339.578 74.683ZM348.651 74.683L349.362 73.98L349.068 73.683H348.651V74.683ZM352.349 78.424H353.349V78.0132L353.06 77.721L352.349 78.424ZM352.349 96H348.092V98H352.349V96ZM349.092 97V93.818H347.092V97H349.092ZM347.385 93.1109L344.203 96.2929L345.617 97.7071L348.799 94.5251L347.385 93.1109ZM344.91 96H340.653V98H344.91V96ZM341.364 96.297L337.666 92.556L336.243 93.962L339.941 97.703L341.364 96.297ZM337.955 93.259V85.863H335.955V93.259H337.955ZM337.666 86.566L341.364 82.825L339.941 81.419L336.243 85.16L337.666 86.566ZM340.653 83.122H347.662V81.122H340.653V83.122ZM346.938 81.4319L343.412 85.1299L344.859 86.5101L348.385 82.8121L346.938 81.4319ZM344.136 84.82H341.169V86.82H344.136V84.82ZM340.169 85.82V93.259H342.169V85.82H340.169ZM341.169 94.259H348.092V92.259H341.169V94.259ZM349.092 93.259V78.424H347.092V93.259H349.092ZM348.092 77.424H336.396V79.424H348.092V77.424ZM337.157 79.0719L340.339 75.3309L338.816 74.0351L335.634 77.7761L337.157 79.0719ZM339.578 75.683H348.651V73.683H339.578V75.683ZM347.939 75.386L351.637 79.127L353.06 77.721L349.362 73.98L347.939 75.386ZM351.349 78.424V97H353.349V78.424H351.349ZM363.357 71.028V72.028H364.357V71.028H363.357ZM359.1 71.028H358.1V72.028H359.1V71.028ZM359.1 66.771V65.771H358.1V66.771H359.1ZM363.357 66.771H364.357V65.771H363.357V66.771ZM363.357 97V98H364.357V97H363.357ZM359.1 97H358.1V98H359.1V97ZM359.1 77.951L358.389 77.2475L358.1 77.5397V77.951H359.1ZM363.357 73.651H364.357V71.2195L362.646 72.9475L363.357 73.651ZM363.357 70.028H359.1V72.028H363.357V70.028ZM360.1 71.028V66.771H358.1V71.028H360.1ZM359.1 67.771H363.357V65.771H359.1V67.771ZM362.357 66.771V71.028H364.357V66.771H362.357ZM363.357 96H359.1V98H363.357V96ZM360.1 97V77.951H358.1V97H360.1ZM359.81 78.6545L364.067 74.3545L362.646 72.9475L358.389 77.2475L359.81 78.6545ZM362.357 73.651V97H364.357V73.651H362.357ZM378.255 97V98H379.255V97H378.255ZM374.041 97L373.33 97.703L373.624 98H374.041V97ZM370.343 93.259H369.343V93.6698L369.632 93.962L370.343 93.259ZM370.343 66.728L369.64 66.0173L369.343 66.3108V66.728H370.343ZM374.6 62.514H375.6V60.117L373.897 61.8033L374.6 62.514ZM374.6 93.259H373.6V94.259H374.6V93.259ZM378.255 93.259H379.255V92.259H378.255V93.259ZM378.255 96H374.041V98H378.255V96ZM374.753 96.297L371.055 92.556L369.632 93.962L373.33 97.703L374.753 96.297ZM371.343 93.259V66.728H369.343V93.259H371.343ZM371.047 67.4387L375.304 63.2247L373.897 61.8033L369.64 66.0173L371.047 67.4387ZM373.6 62.514V93.259H375.6V62.514H373.6ZM374.6 94.259H378.255V92.259H374.6V94.259ZM377.255 93.259V97H379.255V93.259H377.255ZM387.17 97V98H388.17V97H387.17ZM382.397 97H381.397V98H382.397V97ZM382.397 92.227V91.227H381.397V92.227H382.397ZM387.17 92.227H388.17V91.227H387.17V92.227ZM387.17 96H382.397V98H387.17V96ZM383.397 97V92.227H381.397V97H383.397ZM382.397 93.227H387.17V91.227H382.397V93.227ZM386.17 92.227V97H388.17V92.227H386.17ZM408.61 78.424L409.32 79.1275L410.02 78.4205L409.317 77.7169L408.61 78.424ZM404.353 82.724H403.353V85.1555L405.063 83.4275L404.353 82.724ZM404.353 78.424H405.353V77.424H404.353V78.424ZM398.548 78.424V77.424H397.548V78.424H398.548ZM398.548 93.259H397.548V94.259H398.548V93.259ZM408.094 93.259H409.094V92.259H408.094V93.259ZM408.094 97V98H409.094V97H408.094ZM397.989 97L397.278 97.703L397.571 98H397.989V97ZM394.291 93.259H393.291V93.6698L393.58 93.962L394.291 93.259ZM394.291 78.424L393.58 77.721L393.291 78.0132V78.424H394.291ZM397.989 74.683V73.683H397.571L397.278 73.98L397.989 74.683ZM404.869 74.683L405.576 73.9759L405.283 73.683H404.869V74.683ZM407.899 77.7205L403.642 82.0205L405.063 83.4275L409.32 79.1275L407.899 77.7205ZM405.353 82.724V78.424H403.353V82.724H405.353ZM404.353 77.424H398.548V79.424H404.353V77.424ZM397.548 78.424V93.259H399.548V78.424H397.548ZM398.548 94.259H408.094V92.259H398.548V94.259ZM407.094 93.259V97H409.094V93.259H407.094ZM408.094 96H397.989V98H408.094V96ZM398.7 96.297L395.002 92.556L393.58 93.962L397.278 97.703L398.7 96.297ZM395.291 93.259V78.424H393.291V93.259H395.291ZM395.002 79.127L398.7 75.386L397.278 73.98L393.58 77.721L395.002 79.127ZM397.989 75.683H404.869V73.683H397.989V75.683ZM404.162 75.3901L407.903 79.1311L409.317 77.7169L405.576 73.9759L404.162 75.3901ZM427.268 93.259L427.98 93.962L428.268 93.6698V93.259H427.268ZM423.57 97V98H423.988L424.282 97.703L423.57 97ZM415.615 97L414.904 97.703L415.198 98H415.615V97ZM411.917 93.259H410.917V93.6698L411.206 93.962L411.917 93.259ZM411.917 78.424L411.206 77.721L410.917 78.0132V78.424H411.917ZM415.615 74.683V73.683H415.198L414.904 73.98L415.615 74.683ZM423.57 74.683L424.282 73.98L423.988 73.683H423.57V74.683ZM427.268 78.424H428.268V78.0132L427.98 77.721L427.268 78.424ZM423.054 93.259V94.259H424.054V93.259H423.054ZM423.054 78.424H424.054V77.424H423.054V78.424ZM416.174 78.424V77.424H415.174V78.424H416.174ZM416.174 93.259H415.174V94.259H416.174V93.259ZM426.557 92.556L422.859 96.297L424.282 97.703L427.98 93.962L426.557 92.556ZM423.57 96H415.615V98H423.57V96ZM416.327 96.297L412.629 92.556L411.206 93.962L414.904 97.703L416.327 96.297ZM412.917 93.259V78.424H410.917V93.259H412.917ZM412.629 79.127L416.327 75.386L414.904 73.98L411.206 77.721L412.629 79.127ZM415.615 75.683H423.57V73.683H415.615V75.683ZM422.859 75.386L426.557 79.127L427.98 77.721L424.282 73.98L422.859 75.386ZM426.268 78.424V93.259H428.268V78.424H426.268ZM424.054 93.259V78.424H422.054V93.259H424.054ZM423.054 77.424H416.174V79.424H423.054V77.424ZM415.174 78.424V93.259H417.174V78.424H415.174ZM416.174 94.259H423.054V92.259H416.174V94.259ZM459.335 97V98H460.335V97H459.335ZM455.078 97H454.078V98H455.078V97ZM455.078 78.424H456.078V77.424H455.078V78.424ZM448.714 78.424V77.424H447.714V78.424H448.714ZM448.714 97V98H449.714V97H448.714ZM444.457 97H443.457V98H444.457V97ZM444.457 78.424H445.457V77.424H444.457V78.424ZM438.136 78.424V77.424H437.136V78.424H438.136ZM438.136 97V98H439.136V97H438.136ZM433.879 97H432.879V98H433.879V97ZM433.879 74.683V73.683H432.879V74.683H433.879ZM438.136 74.683H439.136V73.683H438.136V74.683ZM438.136 77.908H437.136V80.3691L438.853 78.6055L438.136 77.908ZM441.275 74.683V73.683H440.853L440.559 73.9855L441.275 74.683ZM445.532 74.683L446.251 73.9874L445.956 73.683H445.532V74.683ZM448.155 77.392L447.437 78.0876L448.149 78.8236L448.868 78.0934L448.155 77.392ZM450.821 74.683V73.683H450.402L450.109 73.9816L450.821 74.683ZM455.594 74.683L456.301 73.9759L456.009 73.683H455.594V74.683ZM459.335 78.424H460.335V78.0098L460.042 77.7169L459.335 78.424ZM459.335 96H455.078V98H459.335V96ZM456.078 97V78.424H454.078V97H456.078ZM455.078 77.424H448.714V79.424H455.078V77.424ZM447.714 78.424V97H449.714V78.424H447.714ZM448.714 96H444.457V98H448.714V96ZM445.457 97V78.424H443.457V97H445.457ZM444.457 77.424H438.136V79.424H444.457V77.424ZM437.136 78.424V97H439.136V78.424H437.136ZM438.136 96H433.879V98H438.136V96ZM434.879 97V74.683H432.879V97H434.879ZM433.879 75.683H438.136V73.683H433.879V75.683ZM437.136 74.683V77.908H439.136V74.683H437.136ZM438.853 78.6055L441.992 75.3805L440.559 73.9855L437.42 77.2105L438.853 78.6055ZM441.275 75.683H445.532V73.683H441.275V75.683ZM444.814 75.3786L447.437 78.0876L448.874 76.6964L446.251 73.9874L444.814 75.3786ZM448.868 78.0934L451.534 75.3844L450.109 73.9816L447.443 76.6906L448.868 78.0934ZM450.821 75.683H455.594V73.683H450.821V75.683ZM454.887 75.3901L458.628 79.1311L460.042 77.7169L456.301 73.9759L454.887 75.3901ZM458.335 78.424V97H460.335V78.424H458.335Z" fill="white" mask="url(#path-1-outside-1_601_11)"/>
    <mask id="path-3-outside-2_601_11" maskUnits="userSpaceOnUse" x="4" y="7" width="445" height="54" fill="black">
    <rect fill="white" x="4" y="7" width="445" height="54"/>
    <path d="M31.329 28.586L26.196 33.719H11.682V49H5.841V18.379L10.974 13.364H5.133V8.231H26.196L31.329 13.364V28.586ZM25.488 28.586V13.364H11.682V33.011L15.989 28.586H25.488ZM64.9539 49H59.1719V33.719H45.3069V49H39.4659V13.364L44.5989 8.231H64.9539V49ZM62.8299 13.364H45.3069V33.011L49.7319 28.586H59.1719V17.022L62.8299 13.364ZM104.428 48.941H93.1587L83.2467 13.423H78.2317L81.8897 16.904V48.941H76.0487V8.172H87.3767L97.1707 43.808H102.245L98.5867 40.091V8.172H104.428V48.941ZM140.991 43.867L135.858 49H115.503V18.379L120.636 13.364H114.795V8.231H135.858L140.991 13.364V43.867ZM135.15 43.867V13.364H121.344V48.292L125.651 43.867H135.15ZM157.225 49H151.384V8.231H157.225V49ZM192.382 13.364H172.322V23.512H185.833L190.848 28.586V43.867L185.833 49H171.555L166.481 43.867V39.796L172.322 34.191V43.867H185.007V28.586H171.555L166.481 23.512V13.364L171.555 8.231H187.249L192.382 13.364ZM218.735 13.364H209.59V49H203.749V13.364H194.663V8.231H218.735V13.364ZM229.839 49H223.998V8.231H229.839V49ZM264.996 43.867L259.863 49H245.29L240.216 43.867V13.364L245.29 8.231H259.863L264.996 13.364V17.612L259.155 23.512V13.364H246.057V43.867H259.155V39.56L264.996 33.719V43.867ZM279.667 49H273.118V42.451H279.667V49ZM314.394 59.207H284.481V54.133H314.394V59.207ZM325.791 49H319.242V42.451H325.791V49ZM357.627 49H334.322V36.256L351.786 18.851V13.364H334.322V8.231H357.627V20.857L340.104 38.439V43.867H357.627V49ZM391.247 49H385.465V33.719H371.6V49H365.759V13.364L370.892 8.231H391.247V49ZM389.123 13.364H371.6V33.011L376.025 28.586H385.465V17.022L389.123 13.364ZM408.183 49H402.342V8.231H408.183V49ZM447.646 48.941H436.377L426.465 13.423H421.45L425.108 16.904V48.941H419.267V8.172H430.595L440.389 43.808H445.463L441.805 40.091V8.172H447.646V48.941Z"/>
    </mask>
    <path d="M31.329 28.586L26.196 33.719H11.682V49H5.841V18.379L10.974 13.364H5.133V8.231H26.196L31.329 13.364V28.586ZM25.488 28.586V13.364H11.682V33.011L15.989 28.586H25.488ZM64.9539 49H59.1719V33.719H45.3069V49H39.4659V13.364L44.5989 8.231H64.9539V49ZM62.8299 13.364H45.3069V33.011L49.7319 28.586H59.1719V17.022L62.8299 13.364ZM104.428 48.941H93.1587L83.2467 13.423H78.2317L81.8897 16.904V48.941H76.0487V8.172H87.3767L97.1707 43.808H102.245L98.5867 40.091V8.172H104.428V48.941ZM140.991 43.867L135.858 49H115.503V18.379L120.636 13.364H114.795V8.231H135.858L140.991 13.364V43.867ZM135.15 43.867V13.364H121.344V48.292L125.651 43.867H135.15ZM157.225 49H151.384V8.231H157.225V49ZM192.382 13.364H172.322V23.512H185.833L190.848 28.586V43.867L185.833 49H171.555L166.481 43.867V39.796L172.322 34.191V43.867H185.007V28.586H171.555L166.481 23.512V13.364L171.555 8.231H187.249L192.382 13.364ZM218.735 13.364H209.59V49H203.749V13.364H194.663V8.231H218.735V13.364ZM229.839 49H223.998V8.231H229.839V49ZM264.996 43.867L259.863 49H245.29L240.216 43.867V13.364L245.29 8.231H259.863L264.996 13.364V17.612L259.155 23.512V13.364H246.057V43.867H259.155V39.56L264.996 33.719V43.867ZM279.667 49H273.118V42.451H279.667V49ZM314.394 59.207H284.481V54.133H314.394V59.207ZM325.791 49H319.242V42.451H325.791V49ZM357.627 49H334.322V36.256L351.786 18.851V13.364H334.322V8.231H357.627V20.857L340.104 38.439V43.867H357.627V49ZM391.247 49H385.465V33.719H371.6V49H365.759V13.364L370.892 8.231H391.247V49ZM389.123 13.364H371.6V33.011L376.025 28.586H385.465V17.022L389.123 13.364ZM408.183 49H402.342V8.231H408.183V49ZM447.646 48.941H436.377L426.465 13.423H421.45L425.108 16.904V48.941H419.267V8.172H430.595L440.389 43.808H445.463L441.805 40.091V8.172H447.646V48.941Z" fill="white"/>
    <path d="M31.329 28.586L32.0361 29.2931L32.329 29.0002V28.586H31.329ZM26.196 33.719V34.719H26.6102L26.9031 34.4261L26.196 33.719ZM11.682 33.719V32.719H10.682V33.719H11.682ZM11.682 49V50H12.682V49H11.682ZM5.841 49H4.841V50H5.841V49ZM5.841 18.379L5.14216 17.6637L4.841 17.958V18.379H5.841ZM10.974 13.364L11.6728 14.0793L13.4285 12.364H10.974V13.364ZM5.133 13.364H4.133V14.364H5.133V13.364ZM5.133 8.231V7.231H4.133V8.231H5.133ZM26.196 8.231L26.9031 7.52389L26.6102 7.231H26.196V8.231ZM31.329 13.364H32.329V12.9498L32.0361 12.6569L31.329 13.364ZM25.488 28.586V29.586H26.488V28.586H25.488ZM25.488 13.364H26.488V12.364H25.488V13.364ZM11.682 13.364V12.364H10.682V13.364H11.682ZM11.682 33.011H10.682V35.4721L12.3986 33.7085L11.682 33.011ZM15.989 28.586V27.586H15.5669L15.2724 27.8885L15.989 28.586ZM30.6219 27.8789L25.4889 33.0119L26.9031 34.4261L32.0361 29.2931L30.6219 27.8789ZM26.196 32.719H11.682V34.719H26.196V32.719ZM10.682 33.719V49H12.682V33.719H10.682ZM11.682 48H5.841V50H11.682V48ZM6.841 49V18.379H4.841V49H6.841ZM6.53984 19.0943L11.6728 14.0793L10.2752 12.6487L5.14216 17.6637L6.53984 19.0943ZM10.974 12.364H5.133V14.364H10.974V12.364ZM6.133 13.364V8.231H4.133V13.364H6.133ZM5.133 9.231H26.196V7.231H5.133V9.231ZM25.4889 8.9381L30.6219 14.0711L32.0361 12.6569L26.9031 7.52389L25.4889 8.9381ZM30.329 13.364V28.586H32.329V13.364H30.329ZM26.488 28.586V13.364H24.488V28.586H26.488ZM25.488 12.364H11.682V14.364H25.488V12.364ZM10.682 13.364V33.011H12.682V13.364H10.682ZM12.3986 33.7085L16.7056 29.2835L15.2724 27.8885L10.9654 32.3135L12.3986 33.7085ZM15.989 29.586H25.488V27.586H15.989V29.586ZM64.9539 49V50H65.9539V49H64.9539ZM59.1719 49H58.1719V50H59.1719V49ZM59.1719 33.719H60.1719V32.719H59.1719V33.719ZM45.3069 33.719V32.719H44.3069V33.719H45.3069ZM45.3069 49V50H46.3069V49H45.3069ZM39.4659 49H38.4659V50H39.4659V49ZM39.4659 13.364L38.7588 12.6569L38.4659 12.9498V13.364H39.4659ZM44.5989 8.231V7.231H44.1847L43.8918 7.52389L44.5989 8.231ZM64.9539 8.231H65.9539V7.231H64.9539V8.231ZM62.8299 13.364L63.537 14.0711L65.2441 12.364H62.8299V13.364ZM45.3069 13.364V12.364H44.3069V13.364H45.3069ZM45.3069 33.011H44.3069V35.4252L46.014 33.7181L45.3069 33.011ZM49.7319 28.586V27.586H49.3177L49.0248 27.8789L49.7319 28.586ZM59.1719 28.586V29.586H60.1719V28.586H59.1719ZM59.1719 17.022L58.4648 16.3149L58.1719 16.6078V17.022H59.1719ZM64.9539 48H59.1719V50H64.9539V48ZM60.1719 49V33.719H58.1719V49H60.1719ZM59.1719 32.719H45.3069V34.719H59.1719V32.719ZM44.3069 33.719V49H46.3069V33.719H44.3069ZM45.3069 48H39.4659V50H45.3069V48ZM40.4659 49V13.364H38.4659V49H40.4659ZM40.173 14.0711L45.306 8.9381L43.8918 7.52389L38.7588 12.6569L40.173 14.0711ZM44.5989 9.231H64.9539V7.231H44.5989V9.231ZM63.9539 8.231V49H65.9539V8.231H63.9539ZM62.8299 12.364H45.3069V14.364H62.8299V12.364ZM44.3069 13.364V33.011H46.3069V13.364H44.3069ZM46.014 33.7181L50.439 29.2931L49.0248 27.8789L44.5998 32.3039L46.014 33.7181ZM49.7319 29.586H59.1719V27.586H49.7319V29.586ZM60.1719 28.586V17.022H58.1719V28.586H60.1719ZM59.879 17.7291L63.537 14.0711L62.1228 12.6569L58.4648 16.3149L59.879 17.7291ZM104.428 48.941V49.941H105.428V48.941H104.428ZM93.1587 48.941L92.1955 49.2098L92.3996 49.941H93.1587V48.941ZM83.2467 13.423L84.2099 13.1542L84.0058 12.423H83.2467V13.423ZM78.2317 13.423V12.423H75.7302L77.5423 14.1474L78.2317 13.423ZM81.8897 16.904H82.8897V16.4752L82.5791 16.1796L81.8897 16.904ZM81.8897 48.941V49.941H82.8897V48.941H81.8897ZM76.0487 48.941H75.0487V49.941H76.0487V48.941ZM76.0487 8.172V7.172H75.0487V8.172H76.0487ZM87.3767 8.172L88.3409 7.90699L88.1389 7.172H87.3767V8.172ZM97.1707 43.808L96.2064 44.073L96.4085 44.808H97.1707V43.808ZM102.245 43.808V44.808H104.632L102.957 43.1066L102.245 43.808ZM98.5867 40.091H97.5867V40.5005L97.874 40.7924L98.5867 40.091ZM98.5867 8.172V7.172H97.5867V8.172H98.5867ZM104.428 8.172H105.428V7.172H104.428V8.172ZM104.428 47.941H93.1587V49.941H104.428V47.941ZM94.1219 48.6722L84.2099 13.1542L82.2835 13.6918L92.1955 49.2098L94.1219 48.6722ZM83.2467 12.423H78.2317V14.423H83.2467V12.423ZM77.5423 14.1474L81.2003 17.6284L82.5791 16.1796L78.9211 12.6986L77.5423 14.1474ZM80.8897 16.904V48.941H82.8897V16.904H80.8897ZM81.8897 47.941H76.0487V49.941H81.8897V47.941ZM77.0487 48.941V8.172H75.0487V48.941H77.0487ZM76.0487 9.172H87.3767V7.172H76.0487V9.172ZM86.4124 8.43701L96.2064 44.073L98.1349 43.543L88.3409 7.90699L86.4124 8.43701ZM97.1707 44.808H102.245V42.808H97.1707V44.808ZM102.957 43.1066L99.2994 39.3896L97.874 40.7924L101.532 44.5094L102.957 43.1066ZM99.5867 40.091V8.172H97.5867V40.091H99.5867ZM98.5867 9.172H104.428V7.172H98.5867V9.172ZM103.428 8.172V48.941H105.428V8.172H103.428ZM140.991 43.867L141.698 44.5741L141.991 44.2812V43.867H140.991ZM135.858 49V50H136.272L136.565 49.7071L135.858 49ZM115.503 49H114.503V50H115.503V49ZM115.503 18.379L114.804 17.6637L114.503 17.958V18.379H115.503ZM120.636 13.364L121.334 14.0793L123.09 12.364H120.636V13.364ZM114.795 13.364H113.795V14.364H114.795V13.364ZM114.795 8.231V7.231H113.795V8.231H114.795ZM135.858 8.231L136.565 7.52389L136.272 7.231H135.858V8.231ZM140.991 13.364H141.991V12.9498L141.698 12.6569L140.991 13.364ZM135.15 43.867V44.867H136.15V43.867H135.15ZM135.15 13.364H136.15V12.364H135.15V13.364ZM121.344 13.364V12.364H120.344V13.364H121.344ZM121.344 48.292H120.344V50.7531L122.06 48.9895L121.344 48.292ZM125.651 43.867V42.867H125.228L124.934 43.1695L125.651 43.867ZM140.284 43.1599L135.151 48.2929L136.565 49.7071L141.698 44.5741L140.284 43.1599ZM135.858 48H115.503V50H135.858V48ZM116.503 49V18.379H114.503V49H116.503ZM116.201 19.0943L121.334 14.0793L119.937 12.6487L114.804 17.6637L116.201 19.0943ZM120.636 12.364H114.795V14.364H120.636V12.364ZM115.795 13.364V8.231H113.795V13.364H115.795ZM114.795 9.231H135.858V7.231H114.795V9.231ZM135.151 8.9381L140.284 14.0711L141.698 12.6569L136.565 7.52389L135.151 8.9381ZM139.991 13.364V43.867H141.991V13.364H139.991ZM136.15 43.867V13.364H134.15V43.867H136.15ZM135.15 12.364H121.344V14.364H135.15V12.364ZM120.344 13.364V48.292H122.344V13.364H120.344ZM122.06 48.9895L126.367 44.5645L124.934 43.1695L120.627 47.5945L122.06 48.9895ZM125.651 44.867H135.15V42.867H125.651V44.867ZM157.225 49V50H158.225V49H157.225ZM151.384 49H150.384V50H151.384V49ZM151.384 8.231V7.231H150.384V8.231H151.384ZM157.225 8.231H158.225V7.231H157.225V8.231ZM157.225 48H151.384V50H157.225V48ZM152.384 49V8.231H150.384V49H152.384ZM151.384 9.231H157.225V7.231H151.384V9.231ZM156.225 8.231V49H158.225V8.231H156.225ZM192.382 13.364V14.364H194.796L193.089 12.6569L192.382 13.364ZM172.322 13.364V12.364H171.322V13.364H172.322ZM172.322 23.512H171.322V24.512H172.322V23.512ZM185.833 23.512L186.544 22.809L186.251 22.512H185.833V23.512ZM190.848 28.586H191.848V28.1752L191.559 27.883L190.848 28.586ZM190.848 43.867L191.563 44.5658L191.848 44.2744V43.867H190.848ZM185.833 49V50H186.254L186.548 49.6988L185.833 49ZM171.555 49L170.844 49.703L171.137 50H171.555V49ZM166.481 43.867H165.481V44.2778L165.77 44.57L166.481 43.867ZM166.481 39.796L165.789 39.0745L165.481 39.3697V39.796H166.481ZM172.322 34.191H173.322V31.8455L171.63 33.4695L172.322 34.191ZM172.322 43.867H171.322V44.867H172.322V43.867ZM185.007 43.867V44.867H186.007V43.867H185.007ZM185.007 28.586H186.007V27.586H185.007V28.586ZM171.555 28.586L170.848 29.2931L171.141 29.586H171.555V28.586ZM166.481 23.512H165.481V23.9262L165.774 24.2191L166.481 23.512ZM166.481 13.364L165.77 12.661L165.481 12.9532V13.364H166.481ZM171.555 8.231V7.231H171.137L170.844 7.52799L171.555 8.231ZM187.249 8.231L187.956 7.52389L187.663 7.231H187.249V8.231ZM192.382 12.364H172.322V14.364H192.382V12.364ZM171.322 13.364V23.512H173.322V13.364H171.322ZM172.322 24.512H185.833V22.512H172.322V24.512ZM185.122 24.215L190.137 29.289L191.559 27.883L186.544 22.809L185.122 24.215ZM189.848 28.586V43.867H191.848V28.586H189.848ZM190.133 43.1682L185.118 48.3012L186.548 49.6988L191.563 44.5658L190.133 43.1682ZM185.833 48H171.555V50H185.833V48ZM172.266 48.297L167.192 43.164L165.77 44.57L170.844 49.703L172.266 48.297ZM167.481 43.867V39.796H165.481V43.867H167.481ZM167.173 40.5175L173.014 34.9125L171.63 33.4695L165.789 39.0745L167.173 40.5175ZM171.322 34.191V43.867H173.322V34.191H171.322ZM172.322 44.867H185.007V42.867H172.322V44.867ZM186.007 43.867V28.586H184.007V43.867H186.007ZM185.007 27.586H171.555V29.586H185.007V27.586ZM172.262 27.8789L167.188 22.8049L165.774 24.2191L170.848 29.2931L172.262 27.8789ZM167.481 23.512V13.364H165.481V23.512H167.481ZM167.192 14.067L172.266 8.93401L170.844 7.52799L165.77 12.661L167.192 14.067ZM171.555 9.231H187.249V7.231H171.555V9.231ZM186.542 8.9381L191.675 14.0711L193.089 12.6569L187.956 7.52389L186.542 8.9381ZM218.735 13.364V14.364H219.735V13.364H218.735ZM209.59 13.364V12.364H208.59V13.364H209.59ZM209.59 49V50H210.59V49H209.59ZM203.749 49H202.749V50H203.749V49ZM203.749 13.364H204.749V12.364H203.749V13.364ZM194.663 13.364H193.663V14.364H194.663V13.364ZM194.663 8.231V7.231H193.663V8.231H194.663ZM218.735 8.231H219.735V7.231H218.735V8.231ZM218.735 12.364H209.59V14.364H218.735V12.364ZM208.59 13.364V49H210.59V13.364H208.59ZM209.59 48H203.749V50H209.59V48ZM204.749 49V13.364H202.749V49H204.749ZM203.749 12.364H194.663V14.364H203.749V12.364ZM195.663 13.364V8.231H193.663V13.364H195.663ZM194.663 9.231H218.735V7.231H194.663V9.231ZM217.735 8.231V13.364H219.735V8.231H217.735ZM229.839 49V50H230.839V49H229.839ZM223.998 49H222.998V50H223.998V49ZM223.998 8.231V7.231H222.998V8.231H223.998ZM229.839 8.231H230.839V7.231H229.839V8.231ZM229.839 48H223.998V50H229.839V48ZM224.998 49V8.231H222.998V49H224.998ZM223.998 9.231H229.839V7.231H223.998V9.231ZM228.839 8.231V49H230.839V8.231H228.839ZM264.996 43.867L265.703 44.5741L265.996 44.2812V43.867H264.996ZM259.863 49V50H260.277L260.57 49.7071L259.863 49ZM245.29 49L244.579 49.703L244.872 50H245.29V49ZM240.216 43.867H239.216V44.2778L239.505 44.57L240.216 43.867ZM240.216 13.364L239.505 12.661L239.216 12.9532V13.364H240.216ZM245.29 8.231V7.231H244.872L244.579 7.52799L245.29 8.231ZM259.863 8.231L260.57 7.52389L260.277 7.231H259.863V8.231ZM264.996 13.364H265.996V12.9498L265.703 12.6569L264.996 13.364ZM264.996 17.612L265.706 18.3155L265.996 18.0233V17.612H264.996ZM259.155 23.512H258.155V25.9435L259.865 24.2155L259.155 23.512ZM259.155 13.364H260.155V12.364H259.155V13.364ZM246.057 13.364V12.364H245.057V13.364H246.057ZM246.057 43.867H245.057V44.867H246.057V43.867ZM259.155 43.867V44.867H260.155V43.867H259.155ZM259.155 39.56L258.448 38.8529L258.155 39.1458V39.56H259.155ZM264.996 33.719H265.996V31.3048L264.289 33.0119L264.996 33.719ZM264.289 43.1599L259.156 48.2929L260.57 49.7071L265.703 44.5741L264.289 43.1599ZM259.863 48H245.29V50H259.863V48ZM246.001 48.297L240.927 43.164L239.505 44.57L244.579 49.703L246.001 48.297ZM241.216 43.867V13.364H239.216V43.867H241.216ZM240.927 14.067L246.001 8.93401L244.579 7.52799L239.505 12.661L240.927 14.067ZM245.29 9.231H259.863V7.231H245.29V9.231ZM259.156 8.9381L264.289 14.0711L265.703 12.6569L260.57 7.52389L259.156 8.9381ZM263.996 13.364V17.612H265.996V13.364H263.996ZM264.285 16.9085L258.444 22.8085L259.865 24.2155L265.706 18.3155L264.285 16.9085ZM260.155 23.512V13.364H258.155V23.512H260.155ZM259.155 12.364H246.057V14.364H259.155V12.364ZM245.057 13.364V43.867H247.057V13.364H245.057ZM246.057 44.867H259.155V42.867H246.057V44.867ZM260.155 43.867V39.56H258.155V43.867H260.155ZM259.862 40.2671L265.703 34.4261L264.289 33.0119L258.448 38.8529L259.862 40.2671ZM263.996 33.719V43.867H265.996V33.719H263.996ZM279.667 49V50H280.667V49H279.667ZM273.118 49H272.118V50H273.118V49ZM273.118 42.451V41.451H272.118V42.451H273.118ZM279.667 42.451H280.667V41.451H279.667V42.451ZM279.667 48H273.118V50H279.667V48ZM274.118 49V42.451H272.118V49H274.118ZM273.118 43.451H279.667V41.451H273.118V43.451ZM278.667 42.451V49H280.667V42.451H278.667ZM314.394 59.207V60.207H315.394V59.207H314.394ZM284.481 59.207H283.481V60.207H284.481V59.207ZM284.481 54.133V53.133H283.481V54.133H284.481ZM314.394 54.133H315.394V53.133H314.394V54.133ZM314.394 58.207H284.481V60.207H314.394V58.207ZM285.481 59.207V54.133H283.481V59.207H285.481ZM284.481 55.133H314.394V53.133H284.481V55.133ZM313.394 54.133V59.207H315.394V54.133H313.394ZM325.791 49V50H326.791V49H325.791ZM319.242 49H318.242V50H319.242V49ZM319.242 42.451V41.451H318.242V42.451H319.242ZM325.791 42.451H326.791V41.451H325.791V42.451ZM325.791 48H319.242V50H325.791V48ZM320.242 49V42.451H318.242V49H320.242ZM319.242 43.451H325.791V41.451H319.242V43.451ZM324.791 42.451V49H326.791V42.451H324.791ZM357.627 49V50H358.627V49H357.627ZM334.322 49H333.322V50H334.322V49ZM334.322 36.256L333.616 35.5477L333.322 35.8408V36.256H334.322ZM351.786 18.851L352.492 19.5593L352.786 19.2662V18.851H351.786ZM351.786 13.364H352.786V12.364H351.786V13.364ZM334.322 13.364H333.322V14.364H334.322V13.364ZM334.322 8.231V7.231H333.322V8.231H334.322ZM357.627 8.231H358.627V7.231H357.627V8.231ZM357.627 20.857L358.335 21.5629L358.627 21.2702V20.857H357.627ZM340.104 38.439L339.395 37.7331L339.104 38.0258V38.439H340.104ZM340.104 43.867H339.104V44.867H340.104V43.867ZM357.627 43.867H358.627V42.867H357.627V43.867ZM357.627 48H334.322V50H357.627V48ZM335.322 49V36.256H333.322V49H335.322ZM335.028 36.9643L352.492 19.5593L351.08 18.1427L333.616 35.5477L335.028 36.9643ZM352.786 18.851V13.364H350.786V18.851H352.786ZM351.786 12.364H334.322V14.364H351.786V12.364ZM335.322 13.364V8.231H333.322V13.364H335.322ZM334.322 9.231H357.627V7.231H334.322V9.231ZM356.627 8.231V20.857H358.627V8.231H356.627ZM356.918 20.1511L339.395 37.7331L340.812 39.1449L358.335 21.5629L356.918 20.1511ZM339.104 38.439V43.867H341.104V38.439H339.104ZM340.104 44.867H357.627V42.867H340.104V44.867ZM356.627 43.867V49H358.627V43.867H356.627ZM391.247 49V50H392.247V49H391.247ZM385.465 49H384.465V50H385.465V49ZM385.465 33.719H386.465V32.719H385.465V33.719ZM371.6 33.719V32.719H370.6V33.719H371.6ZM371.6 49V50H372.6V49H371.6ZM365.759 49H364.759V50H365.759V49ZM365.759 13.364L365.052 12.6569L364.759 12.9498V13.364H365.759ZM370.892 8.231V7.231H370.478L370.185 7.52389L370.892 8.231ZM391.247 8.231H392.247V7.231H391.247V8.231ZM389.123 13.364L389.83 14.0711L391.537 12.364H389.123V13.364ZM371.6 13.364V12.364H370.6V13.364H371.6ZM371.6 33.011H370.6V35.4252L372.307 33.7181L371.6 33.011ZM376.025 28.586V27.586H375.611L375.318 27.8789L376.025 28.586ZM385.465 28.586V29.586H386.465V28.586H385.465ZM385.465 17.022L384.758 16.3149L384.465 16.6078V17.022H385.465ZM391.247 48H385.465V50H391.247V48ZM386.465 49V33.719H384.465V49H386.465ZM385.465 32.719H371.6V34.719H385.465V32.719ZM370.6 33.719V49H372.6V33.719H370.6ZM371.6 48H365.759V50H371.6V48ZM366.759 49V13.364H364.759V49H366.759ZM366.466 14.0711L371.599 8.9381L370.185 7.52389L365.052 12.6569L366.466 14.0711ZM370.892 9.231H391.247V7.231H370.892V9.231ZM390.247 8.231V49H392.247V8.231H390.247ZM389.123 12.364H371.6V14.364H389.123V12.364ZM370.6 13.364V33.011H372.6V13.364H370.6ZM372.307 33.7181L376.732 29.2931L375.318 27.8789L370.893 32.3039L372.307 33.7181ZM376.025 29.586H385.465V27.586H376.025V29.586ZM386.465 28.586V17.022H384.465V28.586H386.465ZM386.172 17.7291L389.83 14.0711L388.416 12.6569L384.758 16.3149L386.172 17.7291ZM408.183 49V50H409.183V49H408.183ZM402.342 49H401.342V50H402.342V49ZM402.342 8.231V7.231H401.342V8.231H402.342ZM408.183 8.231H409.183V7.231H408.183V8.231ZM408.183 48H402.342V50H408.183V48ZM403.342 49V8.231H401.342V49H403.342ZM402.342 9.231H408.183V7.231H402.342V9.231ZM407.183 8.231V49H409.183V8.231H407.183ZM447.646 48.941V49.941H448.646V48.941H447.646ZM436.377 48.941L435.414 49.2098L435.618 49.941H436.377V48.941ZM426.465 13.423L427.429 13.1542L427.225 12.423H426.465V13.423ZM421.45 13.423V12.423H418.949L420.761 14.1474L421.45 13.423ZM425.108 16.904H426.108V16.4752L425.798 16.1796L425.108 16.904ZM425.108 48.941V49.941H426.108V48.941H425.108ZM419.267 48.941H418.267V49.941H419.267V48.941ZM419.267 8.172V7.172H418.267V8.172H419.267ZM430.595 8.172L431.56 7.90699L431.358 7.172H430.595V8.172ZM440.389 43.808L439.425 44.073L439.627 44.808H440.389V43.808ZM445.463 43.808V44.808H447.851L446.176 43.1066L445.463 43.808ZM441.805 40.091H440.805V40.5005L441.093 40.7924L441.805 40.091ZM441.805 8.172V7.172H440.805V8.172H441.805ZM447.646 8.172H448.646V7.172H447.646V8.172ZM447.646 47.941H436.377V49.941H447.646V47.941ZM437.341 48.6722L427.429 13.1542L425.502 13.6918L435.414 49.2098L437.341 48.6722ZM426.465 12.423H421.45V14.423H426.465V12.423ZM420.761 14.1474L424.419 17.6284L425.798 16.1796L422.14 12.6986L420.761 14.1474ZM424.108 16.904V48.941H426.108V16.904H424.108ZM425.108 47.941H419.267V49.941H425.108V47.941ZM420.267 48.941V8.172H418.267V48.941H420.267ZM419.267 9.172H430.595V7.172H419.267V9.172ZM429.631 8.43701L439.425 44.073L441.354 43.543L431.56 7.90699L429.631 8.43701ZM440.389 44.808H445.463V42.808H440.389V44.808ZM446.176 43.1066L442.518 39.3896L441.093 40.7924L444.751 44.5094L446.176 43.1066ZM442.805 40.091V8.172H440.805V40.091H442.805ZM441.805 9.172H447.646V7.172H441.805V9.172ZM446.646 8.172V48.941H448.646V8.172H446.646Z" fill="white" mask="url(#path-3-outside-2_601_11)"/>
    </svg>
    